<svg width="22" height="19" viewBox="0 0 22 19" fill="none" xmlns="http://www.w3.org/2000/svg">
<g clip-path="url(#clip0_273_153)">
<path d="M1.77461 19C0.794922 19 0 18.3135 0 17.4674C0 17.3709 0.00859375 17.2744 0.0300781 17.1816L1.20313 11.8082C1.26758 11.5039 1.43945 11.2256 1.69297 11.0104L13.4664 0.842383C14.098 0.296875 14.9746 0 15.9457 0C16.2938 0 16.6375 0.0371094 16.977 0.103906C18.0727 0.322852 19.1727 0.87207 20.0793 1.65508C20.9859 2.43809 21.6262 3.38809 21.8754 4.33438C22.1934 5.51816 21.884 6.62402 21.0246 7.36621L9.25117 17.5342C8.99766 17.7531 8.67539 17.8979 8.32734 17.9572L2.10547 18.974C1.99805 18.9926 1.88633 19 1.77461 19ZM4.00039 15.5451L7.13281 15.033L14.9531 8.2791L12.4137 6.08594L4.59336 12.8398L4.00039 15.5451ZM17.4625 6.11191L18.4551 5.25469C18.4637 5.0543 18.2918 4.4457 17.5699 3.82598C17.1359 3.44746 16.6246 3.18027 16.1777 3.09121C16.1004 3.07637 16.0188 3.06523 15.9414 3.06523H15.9113L14.923 3.91875L17.4625 6.11191Z" fill="black"/>
<path d="M21.4586 4.41973C21.2266 3.54023 20.625 2.65332 19.7785 1.91855C18.932 1.18379 17.8965 0.667969 16.8824 0.467578C15.6578 0.222656 14.5235 0.452735 13.7758 1.10215L2.00236 11.2701C1.809 11.4334 1.6801 11.6449 1.62854 11.875L0.451192 17.2521C0.313692 17.883 0.794942 18.4916 1.52111 18.6104C1.60275 18.6252 1.68869 18.6289 1.77033 18.6289C1.85197 18.6289 1.93791 18.6215 2.01955 18.6104L8.25002 17.5936C8.51643 17.549 8.76135 17.4377 8.95041 17.2744L20.7238 7.10645C21.4758 6.45703 21.7422 5.47734 21.4586 4.41973ZM7.34338 15.3781L3.4633 16.009L4.19377 12.658L12.4137 5.55898L15.5633 8.2791L7.34338 15.3781ZM18.8246 5.4625L17.4625 6.63887L14.3172 3.91875L15.6793 2.74238C15.7223 2.70527 15.9199 2.65703 16.2809 2.72754C16.8051 2.83145 17.3895 3.13574 17.8793 3.55879C18.8891 4.43828 18.9793 5.32891 18.8246 5.4625Z" fill="#413B3B"/>
</g>
<defs>
<clipPath id="clip0_273_153">
<rect width="22" height="19" fill="white"/>
</clipPath>
</defs>
</svg>
