<svg width="61" height="58" viewBox="0 0 61 58" fill="none" xmlns="http://www.w3.org/2000/svg">
<path d="M54.9002 1.16H6.10021C3.41621 1.16 1.22021 3.248 1.22021 5.8V52.2C1.22021 54.752 3.41621 56.84 6.10021 56.84H54.9002C57.5842 56.84 59.7802 54.752 59.7802 52.2V5.8C59.7802 3.248 57.5842 1.16 54.9002 1.16Z" fill="white"/>
<path d="M24.7659 12.18C20.2519 13.688 16.3479 16.936 14.1519 20.996C13.4199 22.388 12.8099 23.896 12.5659 25.52C11.7119 29.348 12.3219 33.524 14.1519 37.004C15.3719 39.324 17.0799 41.296 19.2759 42.92C21.2279 44.428 23.5459 45.588 26.1079 46.168C29.2799 46.98 32.5739 46.98 35.6239 46.284C38.4299 45.704 41.1139 44.428 43.3099 42.456C45.6279 40.484 47.2139 37.932 48.0679 35.032C49.0439 32.016 49.1659 28.768 48.5559 25.636C42.6999 25.636 36.8439 25.636 30.9879 25.636V32.596H41.1139C40.7479 34.8 39.2839 36.888 37.3319 38.048C36.1119 38.86 34.6479 39.324 33.1839 39.556C31.7199 39.788 30.1339 39.788 28.6699 39.556C27.2059 39.324 25.7419 38.628 24.5219 37.816C22.5699 36.54 20.9839 34.568 20.2519 32.364C19.3979 30.16 19.3979 27.724 20.2519 25.404C20.8619 23.896 21.7159 22.388 22.9359 21.228C24.3999 19.72 26.3519 18.676 28.5479 18.328C30.3779 17.98 32.2079 17.98 34.0379 18.56C35.5019 19.024 36.9659 19.836 38.0639 20.764C39.1619 19.72 40.3819 18.56 41.4799 17.516C42.0899 16.936 42.6999 16.356 43.3099 15.776C41.6019 14.268 39.5279 12.992 37.3319 12.18C33.3059 10.904 28.7919 10.904 24.7659 12.18Z" fill="white"/>
<path d="M24.7659 12.18C28.7919 10.904 33.3059 10.904 37.3319 12.296C39.5279 13.108 41.6019 14.268 43.3099 15.892C42.6999 16.472 42.0899 17.052 41.4799 17.632C40.3819 18.676 39.1619 19.836 38.0639 20.88C36.9659 19.836 35.5019 19.024 34.0379 18.676C32.3299 18.212 30.3779 18.096 28.5479 18.444C26.4739 18.908 24.5219 19.952 22.9359 21.344C21.7159 22.504 20.7399 24.012 20.2519 25.52C18.1779 24.012 16.2259 22.504 14.1519 20.996C16.3479 16.936 20.2519 13.688 24.7659 12.18Z" fill="#EA4335"/>
<path d="M12.5659 25.52C12.9319 24.012 13.4199 22.504 14.1519 20.996C16.2259 22.504 18.1779 24.012 20.2519 25.52C19.3979 27.724 19.3979 30.16 20.2519 32.48C18.1779 33.988 16.2259 35.496 14.1519 37.004C12.3219 33.408 11.7119 29.348 12.5659 25.52Z" fill="#FBBC05"/>
<path d="M30.8657 25.636H48.4337C49.0437 28.768 48.9217 32.016 47.9457 35.032C47.0917 37.816 45.5057 40.368 43.1877 42.456C41.2357 40.948 39.2837 39.556 37.2097 38.048C39.1617 36.772 40.5037 34.8 40.9917 32.596C37.5757 32.596 34.1597 32.596 30.8657 32.596C30.8657 30.276 30.8657 27.956 30.8657 25.636Z" fill="#4285F4"/>
<path d="M14.1519 37.004C16.2259 35.496 18.1779 33.988 20.2519 32.48C20.9839 34.684 22.5699 36.656 24.5219 37.932C25.7419 38.744 27.2059 39.324 28.6699 39.672C30.1339 39.904 31.5979 39.904 33.1839 39.672C34.6479 39.44 36.1119 38.86 37.3319 38.164C39.2839 39.672 41.2359 41.064 43.3099 42.572C41.1139 44.428 38.5519 45.704 35.6239 46.4C32.4519 47.096 29.1579 47.096 26.1079 46.284C23.6679 45.704 21.3499 44.544 19.2759 43.036C17.2019 41.296 15.3719 39.208 14.1519 37.004Z" fill="#34A853"/>
</svg>
